<svg xmlns="http://www.w3.org/2000/svg" viewBox="0 0 512 512">
  <defs>
    <linearGradient id="bg" x1="0" y1="0" x2="1" y2="1">
      <stop offset="0%" stop-color="#40916C"/>
      <stop offset="50%" stop-color="#2D6A4F"/>
      <stop offset="100%" stop-color="#1B4332"/>
    </linearGradient>
    <filter id="glow">
      <feGaussianBlur stdDeviation="3" result="blur"/>
      <feMerge><feMergeNode in="blur"/><feMergeNode in="SourceGraphic"/></feMerge>
    </filter>
  </defs>
  <rect width="512" height="512" rx="110" fill="url(#bg)"/>
  <rect x="12" y="12" width="488" height="488" rx="102" fill="none" stroke="white" stroke-opacity=".06" stroke-width="2"/>
  <path d="M248 256 C220 180 152 108 112 132 C72 156 80 228 118 276 C146 310 198 332 248 316Z" fill="white" opacity=".93" filter="url(#glow)"/>
  <path d="M248 256 C232 288 192 360 156 378 C118 396 92 374 98 342 C104 314 142 282 248 316Z" fill="white" opacity=".72"/>
  <path d="M264 256 C292 180 360 108 400 132 C440 156 432 228 394 276 C366 310 314 332 264 316Z" fill="white" opacity=".93" filter="url(#glow)"/>
  <path d="M264 256 C280 288 320 360 356 378 C394 396 420 374 414 342 C408 314 370 282 264 316Z" fill="white" opacity=".72"/>
  <ellipse cx="256" cy="292" rx="10" ry="50" fill="white" opacity=".9"/>
  <path d="M250 240 C238 204 214 172 200 162" stroke="white" stroke-width="6" stroke-linecap="round" fill="none" opacity=".65"/>
  <path d="M262 240 C274 204 298 172 312 162" stroke="white" stroke-width="6" stroke-linecap="round" fill="none" opacity=".65"/>
  <circle cx="196" cy="158" r="8" fill="white" opacity=".65"/>
  <circle cx="316" cy="158" r="8" fill="white" opacity=".65"/>
  <path d="M248 270 C210 230 170 190 148 180" stroke="white" stroke-width="1.5" stroke-linecap="round" fill="none" opacity=".2"/>
  <path d="M248 280 C220 270 180 280 158 340" stroke="white" stroke-width="1.5" stroke-linecap="round" fill="none" opacity=".15"/>
  <path d="M264 270 C302 230 342 190 364 180" stroke="white" stroke-width="1.5" stroke-linecap="round" fill="none" opacity=".2"/>
  <path d="M264 280 C292 270 332 280 354 340" stroke="white" stroke-width="1.5" stroke-linecap="round" fill="none" opacity=".15"/>
</svg>
